# xmcd
#
# Track frame offsets:
#	150
#	12112
#	26259
#	44492
#	60814
#	74738
#	86187
#	98666
#	107905
#	126991
#	142985
#	155270
#	169474
#	187672
#	203848
#	217744
#	229248
#	241870
#	251010
#	270122
#
# Disc length: 3818 seconds
#
# Revision: 1
# Processed by: cddbd v1.5.2PL0 Copyright (c) Steve Scherf et al.
# Submitted via: audiograbber 1.83.01
#
DISCID=070ee814
DTITLE=Variousa - PS1153
DYEAR=1900
DGENRE=Karaoke
TTITLE0=Rich, Charlie w/Vocal - Most Beautiful Girl In The World, The
TTITLE1=Denver, John w/Vocal - Take Me Home, Country Roads
TTITLE2=Price, Ray w/Vocal - For The Good Times
TTITLE3=Nelson, Willie w/Vocal - Always On My Mind
TTITLE4=Williams, Hank w/Vocal - Jambalaya
TTITLE5=Dudley, Dave w/Vocal - Six Days On The Road
TTITLE6=Miller, Roger w/Vocal - King Of The Road
TTITLE7=Cash, Johnny w/Vocal - I Walk The Line
TTITLE8=Jones, Tom w/Vocal - Green Green Grass Of Home
TTITLE9=Rogers, Kenny w/Vocal - Lucille
TTITLE10=Rich, Charlie - Most Beautiful Girl In The World, The
TTITLE11=Denver, John - Take Me Home, Country Roads
TTITLE12=Price, Ray - For The Good Times
TTITLE13=Nelson, Willie - Always On My Mind
TTITLE14=Williams, Hank - Jambalaya
TTITLE15=Dudley, Dave - Six Days On The Road
TTITLE16=Miller, Roger - King Of The Road
TTITLE17=Cash, Johnny - I Walk The Line
TTITLE18=Jones, Tom - Green Green Grass Of Home
TTITLE19=Rogers, Kenny - Lucille
EXTD=
EXTT0=
EXTT1=
EXTT2=
EXTT3=
EXTT4=
EXTT5=
EXTT6=
EXTT7=
EXTT8=
EXTT9=
EXTT10=
EXTT11=
EXTT12=
EXTT13=
EXTT14=
EXTT15=
EXTT16=
EXTT17=
EXTT18=
EXTT19=
PLAYORDER=
